G04 #@! TF.GenerationSoftware,KiCad,Pcbnew,(6.0.7-1)-1*
G04 #@! TF.CreationDate,2023-06-09T15:27:34-07:00*
G04 #@! TF.ProjectId,balsamic,62616c73-616d-4696-932e-6b696361645f,rev?*
G04 #@! TF.SameCoordinates,Original*
G04 #@! TF.FileFunction,Profile,NP*
%FSLAX46Y46*%
G04 Gerber Fmt 4.6, Leading zero omitted, Abs format (unit mm)*
G04 Created by KiCad (PCBNEW (6.0.7-1)-1) date 2023-06-09 15:27:34*
%MOMM*%
%LPD*%
G01*
G04 APERTURE LIST*
G04 #@! TA.AperFunction,Profile*
%ADD10C,0.050000*%
G04 #@! TD*
G04 APERTURE END LIST*
D10*
X67300000Y-74014185D02*
X68900000Y-74014185D01*
X66930000Y-74384185D02*
X66931630Y-81805815D01*
X69270000Y-73644185D02*
X69270000Y-72370000D01*
X77729955Y-61817445D02*
G75*
G03*
X78100000Y-62187445I370045J45D01*
G01*
X69270000Y-72370000D02*
G75*
G03*
X68900000Y-72000000I-370000J0D01*
G01*
X77631585Y-73625815D02*
G75*
G03*
X78001630Y-73995815I370015J15D01*
G01*
X66830000Y-59830000D02*
G75*
G03*
X67200000Y-60200000I370000J0D01*
G01*
X79698370Y-53631630D02*
X67201630Y-53630000D01*
X77631630Y-72374185D02*
X77631630Y-73625815D01*
X80069955Y-62557445D02*
G75*
G03*
X79700000Y-62187445I-369955J45D01*
G01*
X62868370Y-62189992D02*
X68900000Y-62194177D01*
X79700000Y-82170000D02*
G75*
G03*
X80070000Y-81800000I0J370000D01*
G01*
X62850000Y-72000000D02*
X68900000Y-72000000D01*
X79700000Y-72004200D02*
G75*
G03*
X80070000Y-71634185I0J370000D01*
G01*
X78001630Y-72004230D02*
G75*
G03*
X77631630Y-72374185I-30J-369970D01*
G01*
X79700000Y-72004185D02*
X78001630Y-72004185D01*
X68900000Y-62194200D02*
G75*
G03*
X69270000Y-61824177I0J370000D01*
G01*
X62500008Y-71638362D02*
G75*
G03*
X62850000Y-72000000I361792J-38D01*
G01*
X79690001Y-60195071D02*
G75*
G03*
X80068370Y-59844185I26499J350871D01*
G01*
X79700000Y-73995815D02*
X78001630Y-73995815D01*
X67201630Y-53630030D02*
G75*
G03*
X66831630Y-54000000I-30J-369970D01*
G01*
X80068370Y-54001630D02*
G75*
G03*
X79698370Y-53631630I-369970J30D01*
G01*
X68900000Y-74014200D02*
G75*
G03*
X69270000Y-73644185I0J370000D01*
G01*
X67300000Y-74014200D02*
G75*
G03*
X66930000Y-74384185I0J-370000D01*
G01*
X62498370Y-62559992D02*
X62500000Y-71638362D01*
X78100000Y-60195800D02*
G75*
G03*
X77730000Y-60565815I0J-370000D01*
G01*
X62868370Y-62189970D02*
G75*
G03*
X62498370Y-62559992I30J-370030D01*
G01*
X69270000Y-60570000D02*
G75*
G03*
X68900000Y-60200000I-370000J0D01*
G01*
X69270000Y-61824177D02*
X69270000Y-60570000D01*
X80069985Y-74365815D02*
G75*
G03*
X79700000Y-73995815I-369985J15D01*
G01*
X80068370Y-54001630D02*
X80068370Y-59844185D01*
X67301630Y-82175815D02*
X79700000Y-82170000D01*
X66931685Y-81805815D02*
G75*
G03*
X67301630Y-82175815I369915J-85D01*
G01*
X80070000Y-62557445D02*
X80070000Y-71634185D01*
X80070000Y-74365815D02*
X80070000Y-81800000D01*
X79700000Y-62187445D02*
X78100000Y-62187445D01*
X77730000Y-60565815D02*
X77730000Y-61817445D01*
X68900000Y-60200000D02*
X67200000Y-60200000D01*
X79690000Y-60195085D02*
X78100000Y-60195815D01*
X66831630Y-54000000D02*
X66830000Y-59830000D01*
M02*
