M48
INCH,TZ
T1C0.0059
T2C0.0079
T3C0.0177
%
G90
G05
T1
X26681Y-27583
X27260Y-24709
X27402Y-27728
X27480Y-24713
X27559Y-27586
X27661Y-24713
X27667Y-25059
X27697Y-21761
X27787Y-24823
X27961Y-24909
X28017Y-21758
X28043Y-25882
X28090Y-24686
X28134Y-24909
X28154Y-25705
X28155Y-25455
X28179Y-21760
X28205Y-25906
X28303Y-27941
X28339Y-21762
X28346Y-25457
X28356Y-24697
X28362Y-24933
X28376Y-25916
X28445Y-27827
X28465Y-26756
X28563Y-27689
X28563Y-21756
X28693Y-27583
X28711Y-25735
X28723Y-21758
X28831Y-25592
X28886Y-29496
X28947Y-27795
X28988Y-25059
X28996Y-24715
X28996Y-24882
X29157Y-29488
X29220Y-26461
X29252Y-27785
X29335Y-25985
X29429Y-26205
X29441Y-25366
X29441Y-30583
X29453Y-25547
X29469Y-25197
X29472Y-27661
X29479Y-24976
X29677Y-29925
X29835Y-30398
X29835Y-30555
X29854Y-29492
X29945Y-29736
X29976Y-24979
X29992Y-29925
X29992Y-30398
X30049Y-24819
X30071Y-28020
X30136Y-29726
X30150Y-30083
X30150Y-30240
X30150Y-30398
X30272Y-27642
X30307Y-30083
X30307Y-30240
X30307Y-30398
X30433Y-32079
X30465Y-29925
X30465Y-30083
X30465Y-30555
X30528Y-24701
X30579Y-30811
X30579Y-31673
X30748Y-29955
X30800Y-29315
X30906Y-30272
X30913Y-30665
X31094Y-30232
X31161Y-23346
T2
X26394Y-25945
X26397Y-26713
X26398Y-24661
X26398Y-28228
X26433Y-22043
X26433Y-22685
X26437Y-21358
X26437Y-21665
X26437Y-23012
X26457Y-25087
X26516Y-29370
X26516Y-29744
X26516Y-30118
X26516Y-30492
X26516Y-30866
X26516Y-31240
X26516Y-31614
X26516Y-31988
X26650Y-25819
X26654Y-26583
X26654Y-27094
X26654Y-27350
X26654Y-26327
X26772Y-21358
X26811Y-24980
X26850Y-31358
X26909Y-29370
X26957Y-27657
X27047Y-21358
X27047Y-21614
X27213Y-27657
X27283Y-31693
X27283Y-32008
X27323Y-21260
X27323Y-24984
X27323Y-31378
X27472Y-23276
X27516Y-25815
X27518Y-26841
X27518Y-27097
X27518Y-27352
X27520Y-25563
X27520Y-26071
X27520Y-26327
X27598Y-31693
X27598Y-32008
X27677Y-27835
X27894Y-21260
X27894Y-23524
X28258Y-21250
X28583Y-21250
X28720Y-29862
X28843Y-28035
X28917Y-21270
X28976Y-31713
X28976Y-32047
X28996Y-23524
X29035Y-26772
X29035Y-27067
X29301Y-21270
X29311Y-26772
X29311Y-27047
X29331Y-31713
X29331Y-32047
X29843Y-30972
X29850Y-28028
X30067Y-22217
X30075Y-21831
X30075Y-22031
X30079Y-27654
X30157Y-23130
X30303Y-22642
X30358Y-24704
X30697Y-21390
X30817Y-28150
X30925Y-32205
X31114Y-30701
X31114Y-31539
X31130Y-21831
X31134Y-22024
X31283Y-29307
X31315Y-23496
X31358Y-22579
X31358Y-32205
X31417Y-24657
X31417Y-25350
X31417Y-26043
X31417Y-26736
X31417Y-27429
X31417Y-28122
T3
G00X30738Y-24931
M15
G01X31053Y-24931
M16
G05
G00X31053Y-27746
M15
G01X30738Y-27746
M16
G05
T0
M30
