G04 #@! TF.GenerationSoftware,KiCad,Pcbnew,(6.0.7-1)-1*
G04 #@! TF.CreationDate,2023-06-09T15:27:33-07:00*
G04 #@! TF.ProjectId,balsamic,62616c73-616d-4696-932e-6b696361645f,rev?*
G04 #@! TF.SameCoordinates,Original*
G04 #@! TF.FileFunction,Legend,Bot*
G04 #@! TF.FilePolarity,Positive*
%FSLAX46Y46*%
G04 Gerber Fmt 4.6, Leading zero omitted, Abs format (unit mm)*
G04 Created by KiCad (PCBNEW (6.0.7-1)-1) date 2023-06-09 15:27:33*
%MOMM*%
%LPD*%
G01*
G04 APERTURE LIST*
%ADD10C,0.060000*%
G04 APERTURE END LIST*
D10*
X73241666Y-75596190D02*
X73241666Y-75096190D01*
X73122619Y-75096190D01*
X73051190Y-75120000D01*
X73003571Y-75167619D01*
X72979761Y-75215238D01*
X72955952Y-75310476D01*
X72955952Y-75381904D01*
X72979761Y-75477142D01*
X73003571Y-75524761D01*
X73051190Y-75572380D01*
X73122619Y-75596190D01*
X73241666Y-75596190D01*
X72551190Y-75572380D02*
X72598809Y-75596190D01*
X72694047Y-75596190D01*
X72741666Y-75572380D01*
X72765476Y-75524761D01*
X72765476Y-75334285D01*
X72741666Y-75286666D01*
X72694047Y-75262857D01*
X72598809Y-75262857D01*
X72551190Y-75286666D01*
X72527380Y-75334285D01*
X72527380Y-75381904D01*
X72765476Y-75429523D01*
X72336904Y-75572380D02*
X72289285Y-75596190D01*
X72194047Y-75596190D01*
X72146428Y-75572380D01*
X72122619Y-75524761D01*
X72122619Y-75500952D01*
X72146428Y-75453333D01*
X72194047Y-75429523D01*
X72265476Y-75429523D01*
X72313095Y-75405714D01*
X72336904Y-75358095D01*
X72336904Y-75334285D01*
X72313095Y-75286666D01*
X72265476Y-75262857D01*
X72194047Y-75262857D01*
X72146428Y-75286666D01*
X71908333Y-75596190D02*
X71908333Y-75262857D01*
X71908333Y-75096190D02*
X71932142Y-75120000D01*
X71908333Y-75143809D01*
X71884523Y-75120000D01*
X71908333Y-75096190D01*
X71908333Y-75143809D01*
X71455952Y-75262857D02*
X71455952Y-75667619D01*
X71479761Y-75715238D01*
X71503571Y-75739047D01*
X71551190Y-75762857D01*
X71622619Y-75762857D01*
X71670238Y-75739047D01*
X71455952Y-75572380D02*
X71503571Y-75596190D01*
X71598809Y-75596190D01*
X71646428Y-75572380D01*
X71670238Y-75548571D01*
X71694047Y-75500952D01*
X71694047Y-75358095D01*
X71670238Y-75310476D01*
X71646428Y-75286666D01*
X71598809Y-75262857D01*
X71503571Y-75262857D01*
X71455952Y-75286666D01*
X71217857Y-75262857D02*
X71217857Y-75596190D01*
X71217857Y-75310476D02*
X71194047Y-75286666D01*
X71146428Y-75262857D01*
X71075000Y-75262857D01*
X71027380Y-75286666D01*
X71003571Y-75334285D01*
X71003571Y-75596190D01*
X70575000Y-75572380D02*
X70622619Y-75596190D01*
X70717857Y-75596190D01*
X70765476Y-75572380D01*
X70789285Y-75524761D01*
X70789285Y-75334285D01*
X70765476Y-75286666D01*
X70717857Y-75262857D01*
X70622619Y-75262857D01*
X70575000Y-75286666D01*
X70551190Y-75334285D01*
X70551190Y-75381904D01*
X70789285Y-75429523D01*
X70122619Y-75596190D02*
X70122619Y-75096190D01*
X70122619Y-75572380D02*
X70170238Y-75596190D01*
X70265476Y-75596190D01*
X70313095Y-75572380D01*
X70336904Y-75548571D01*
X70360714Y-75500952D01*
X70360714Y-75358095D01*
X70336904Y-75310476D01*
X70313095Y-75286666D01*
X70265476Y-75262857D01*
X70170238Y-75262857D01*
X70122619Y-75286666D01*
X69503571Y-75596190D02*
X69503571Y-75096190D01*
X69503571Y-75286666D02*
X69455952Y-75262857D01*
X69360714Y-75262857D01*
X69313095Y-75286666D01*
X69289285Y-75310476D01*
X69265476Y-75358095D01*
X69265476Y-75500952D01*
X69289285Y-75548571D01*
X69313095Y-75572380D01*
X69360714Y-75596190D01*
X69455952Y-75596190D01*
X69503571Y-75572380D01*
X69098809Y-75262857D02*
X68979761Y-75596190D01*
X68860714Y-75262857D02*
X68979761Y-75596190D01*
X69027380Y-75715238D01*
X69051190Y-75739047D01*
X69098809Y-75762857D01*
X73598809Y-76258333D02*
X73360714Y-76258333D01*
X73646428Y-76401190D02*
X73479761Y-75901190D01*
X73313095Y-76401190D01*
X73146428Y-76067857D02*
X73146428Y-76401190D01*
X73146428Y-76115476D02*
X73122619Y-76091666D01*
X73075000Y-76067857D01*
X73003571Y-76067857D01*
X72955952Y-76091666D01*
X72932142Y-76139285D01*
X72932142Y-76401190D01*
X72765476Y-76067857D02*
X72575000Y-76067857D01*
X72694047Y-75901190D02*
X72694047Y-76329761D01*
X72670238Y-76377380D01*
X72622619Y-76401190D01*
X72575000Y-76401190D01*
X72336904Y-76401190D02*
X72384523Y-76377380D01*
X72408333Y-76353571D01*
X72432142Y-76305952D01*
X72432142Y-76163095D01*
X72408333Y-76115476D01*
X72384523Y-76091666D01*
X72336904Y-76067857D01*
X72265476Y-76067857D01*
X72217857Y-76091666D01*
X72194047Y-76115476D01*
X72170238Y-76163095D01*
X72170238Y-76305952D01*
X72194047Y-76353571D01*
X72217857Y-76377380D01*
X72265476Y-76401190D01*
X72336904Y-76401190D01*
X71955952Y-76067857D02*
X71955952Y-76401190D01*
X71955952Y-76115476D02*
X71932142Y-76091666D01*
X71884523Y-76067857D01*
X71813095Y-76067857D01*
X71765476Y-76091666D01*
X71741666Y-76139285D01*
X71741666Y-76401190D01*
X71503571Y-76401190D02*
X71503571Y-76067857D01*
X71503571Y-75901190D02*
X71527380Y-75925000D01*
X71503571Y-75948809D01*
X71479761Y-75925000D01*
X71503571Y-75901190D01*
X71503571Y-75948809D01*
X71194047Y-76401190D02*
X71241666Y-76377380D01*
X71265476Y-76353571D01*
X71289285Y-76305952D01*
X71289285Y-76163095D01*
X71265476Y-76115476D01*
X71241666Y-76091666D01*
X71194047Y-76067857D01*
X71122619Y-76067857D01*
X71075000Y-76091666D01*
X71051190Y-76115476D01*
X71027380Y-76163095D01*
X71027380Y-76305952D01*
X71051190Y-76353571D01*
X71075000Y-76377380D01*
X71122619Y-76401190D01*
X71194047Y-76401190D01*
X70170238Y-75925000D02*
X70217857Y-75901190D01*
X70289285Y-75901190D01*
X70360714Y-75925000D01*
X70408333Y-75972619D01*
X70432142Y-76020238D01*
X70455952Y-76115476D01*
X70455952Y-76186904D01*
X70432142Y-76282142D01*
X70408333Y-76329761D01*
X70360714Y-76377380D01*
X70289285Y-76401190D01*
X70241666Y-76401190D01*
X70170238Y-76377380D01*
X70146428Y-76353571D01*
X70146428Y-76186904D01*
X70241666Y-76186904D01*
X69860714Y-76401190D02*
X69908333Y-76377380D01*
X69932142Y-76329761D01*
X69932142Y-75901190D01*
X69479761Y-76377380D02*
X69527380Y-76401190D01*
X69622619Y-76401190D01*
X69670238Y-76377380D01*
X69694047Y-76329761D01*
X69694047Y-76139285D01*
X69670238Y-76091666D01*
X69622619Y-76067857D01*
X69527380Y-76067857D01*
X69479761Y-76091666D01*
X69455952Y-76139285D01*
X69455952Y-76186904D01*
X69694047Y-76234523D01*
X69241666Y-76067857D02*
X69241666Y-76401190D01*
X69241666Y-76115476D02*
X69217857Y-76091666D01*
X69170238Y-76067857D01*
X69098809Y-76067857D01*
X69051190Y-76091666D01*
X69027380Y-76139285D01*
X69027380Y-76401190D01*
X68789285Y-76067857D02*
X68789285Y-76401190D01*
X68789285Y-76115476D02*
X68765476Y-76091666D01*
X68717857Y-76067857D01*
X68646428Y-76067857D01*
X68598809Y-76091666D01*
X68575000Y-76139285D01*
X68575000Y-76401190D01*
X73955952Y-77206190D02*
X73955952Y-76944285D01*
X73979761Y-76896666D01*
X74027380Y-76872857D01*
X74122619Y-76872857D01*
X74170238Y-76896666D01*
X73955952Y-77182380D02*
X74003571Y-77206190D01*
X74122619Y-77206190D01*
X74170238Y-77182380D01*
X74194047Y-77134761D01*
X74194047Y-77087142D01*
X74170238Y-77039523D01*
X74122619Y-77015714D01*
X74003571Y-77015714D01*
X73955952Y-76991904D01*
X73717857Y-76872857D02*
X73717857Y-77206190D01*
X73717857Y-76920476D02*
X73694047Y-76896666D01*
X73646428Y-76872857D01*
X73575000Y-76872857D01*
X73527380Y-76896666D01*
X73503571Y-76944285D01*
X73503571Y-77206190D01*
X73051190Y-77206190D02*
X73051190Y-76706190D01*
X73051190Y-77182380D02*
X73098809Y-77206190D01*
X73194047Y-77206190D01*
X73241666Y-77182380D01*
X73265476Y-77158571D01*
X73289285Y-77110952D01*
X73289285Y-76968095D01*
X73265476Y-76920476D01*
X73241666Y-76896666D01*
X73194047Y-76872857D01*
X73098809Y-76872857D01*
X73051190Y-76896666D01*
X72432142Y-77206190D02*
X72432142Y-76706190D01*
X72265476Y-77063333D01*
X72098809Y-76706190D01*
X72098809Y-77206190D01*
X71646428Y-77206190D02*
X71646428Y-76944285D01*
X71670238Y-76896666D01*
X71717857Y-76872857D01*
X71813095Y-76872857D01*
X71860714Y-76896666D01*
X71646428Y-77182380D02*
X71694047Y-77206190D01*
X71813095Y-77206190D01*
X71860714Y-77182380D01*
X71884523Y-77134761D01*
X71884523Y-77087142D01*
X71860714Y-77039523D01*
X71813095Y-77015714D01*
X71694047Y-77015714D01*
X71646428Y-76991904D01*
X71408333Y-77206190D02*
X71408333Y-76872857D01*
X71408333Y-76968095D02*
X71384523Y-76920476D01*
X71360714Y-76896666D01*
X71313095Y-76872857D01*
X71265476Y-76872857D01*
X70884523Y-76872857D02*
X70884523Y-77206190D01*
X71098809Y-76872857D02*
X71098809Y-77134761D01*
X71075000Y-77182380D01*
X71027380Y-77206190D01*
X70955952Y-77206190D01*
X70908333Y-77182380D01*
X70884523Y-77158571D01*
X70432142Y-77182380D02*
X70479761Y-77206190D01*
X70575000Y-77206190D01*
X70622619Y-77182380D01*
X70646428Y-77158571D01*
X70670238Y-77110952D01*
X70670238Y-76968095D01*
X70646428Y-76920476D01*
X70622619Y-76896666D01*
X70575000Y-76872857D01*
X70479761Y-76872857D01*
X70432142Y-76896666D01*
X70217857Y-77206190D02*
X70217857Y-76706190D01*
X70003571Y-77206190D02*
X70003571Y-76944285D01*
X70027380Y-76896666D01*
X70075000Y-76872857D01*
X70146428Y-76872857D01*
X70194047Y-76896666D01*
X70217857Y-76920476D01*
X69765476Y-77206190D02*
X69765476Y-76872857D01*
X69765476Y-76706190D02*
X69789285Y-76730000D01*
X69765476Y-76753809D01*
X69741666Y-76730000D01*
X69765476Y-76706190D01*
X69765476Y-76753809D01*
X69146428Y-77206190D02*
X69146428Y-76706190D01*
X68860714Y-77206190D02*
X69075000Y-76920476D01*
X68860714Y-76706190D02*
X69146428Y-76991904D01*
X68646428Y-77206190D02*
X68646428Y-76872857D01*
X68646428Y-76706190D02*
X68670238Y-76730000D01*
X68646428Y-76753809D01*
X68622619Y-76730000D01*
X68646428Y-76706190D01*
X68646428Y-76753809D01*
X68408333Y-77206190D02*
X68408333Y-76872857D01*
X68408333Y-76920476D02*
X68384523Y-76896666D01*
X68336904Y-76872857D01*
X68265476Y-76872857D01*
X68217857Y-76896666D01*
X68194047Y-76944285D01*
X68194047Y-77206190D01*
X68194047Y-76944285D02*
X68170238Y-76896666D01*
X68122619Y-76872857D01*
X68051190Y-76872857D01*
X68003571Y-76896666D01*
X67979761Y-76944285D01*
X67979761Y-77206190D01*
M02*
