G04 #@! TF.GenerationSoftware,KiCad,Pcbnew,(6.0.7-1)-1*
G04 #@! TF.CreationDate,2023-06-09T15:27:33-07:00*
G04 #@! TF.ProjectId,balsamic,62616c73-616d-4696-932e-6b696361645f,rev?*
G04 #@! TF.SameCoordinates,Original*
G04 #@! TF.FileFunction,Legend,Top*
G04 #@! TF.FilePolarity,Positive*
%FSLAX46Y46*%
G04 Gerber Fmt 4.6, Leading zero omitted, Abs format (unit mm)*
G04 Created by KiCad (PCBNEW (6.0.7-1)-1) date 2023-06-09 15:27:33*
%MOMM*%
%LPD*%
G01*
G04 APERTURE LIST*
%ADD10C,0.075000*%
%ADD11C,0.050000*%
%ADD12C,0.060000*%
%ADD13C,0.120000*%
%ADD14C,0.100000*%
%ADD15C,0.127000*%
%ADD16C,0.200000*%
%ADD17C,0.150000*%
%ADD18C,0.500000*%
G04 APERTURE END LIST*
D10*
X67359523Y-81785714D02*
X67740476Y-81785714D01*
X67550000Y-81976190D02*
X67550000Y-81595238D01*
X71059523Y-81935714D02*
X71440476Y-81935714D01*
X73059523Y-81835714D02*
X73440476Y-81835714D01*
X73250000Y-82026190D02*
X73250000Y-81645238D01*
X75459523Y-81935714D02*
X75840476Y-81935714D01*
X76550000Y-54007142D02*
X76535714Y-54021428D01*
X76492857Y-54035714D01*
X76464285Y-54035714D01*
X76421428Y-54021428D01*
X76392857Y-53992857D01*
X76378571Y-53964285D01*
X76364285Y-53907142D01*
X76364285Y-53864285D01*
X76378571Y-53807142D01*
X76392857Y-53778571D01*
X76421428Y-53750000D01*
X76464285Y-53735714D01*
X76492857Y-53735714D01*
X76535714Y-53750000D01*
X76550000Y-53764285D01*
X76664285Y-54021428D02*
X76707142Y-54035714D01*
X76778571Y-54035714D01*
X76807142Y-54021428D01*
X76821428Y-54007142D01*
X76835714Y-53978571D01*
X76835714Y-53950000D01*
X76821428Y-53921428D01*
X76807142Y-53907142D01*
X76778571Y-53892857D01*
X76721428Y-53878571D01*
X76692857Y-53864285D01*
X76678571Y-53850000D01*
X76664285Y-53821428D01*
X76664285Y-53792857D01*
X76678571Y-53764285D01*
X76692857Y-53750000D01*
X76721428Y-53735714D01*
X76792857Y-53735714D01*
X76835714Y-53750000D01*
X73653571Y-54135714D02*
X73653571Y-53835714D01*
X73725000Y-53835714D01*
X73767857Y-53850000D01*
X73796428Y-53878571D01*
X73810714Y-53907142D01*
X73825000Y-53964285D01*
X73825000Y-54007142D01*
X73810714Y-54064285D01*
X73796428Y-54092857D01*
X73767857Y-54121428D01*
X73725000Y-54135714D01*
X73653571Y-54135714D01*
X73925000Y-53835714D02*
X74110714Y-53835714D01*
X74010714Y-53950000D01*
X74053571Y-53950000D01*
X74082142Y-53964285D01*
X74096428Y-53978571D01*
X74110714Y-54007142D01*
X74110714Y-54078571D01*
X74096428Y-54107142D01*
X74082142Y-54121428D01*
X74053571Y-54135714D01*
X73967857Y-54135714D01*
X73939285Y-54121428D01*
X73925000Y-54107142D01*
X72381428Y-68855714D02*
X72552857Y-68855714D01*
X72467142Y-69155714D02*
X72467142Y-68855714D01*
X72624285Y-68855714D02*
X72824285Y-69155714D01*
X72824285Y-68855714D02*
X72624285Y-69155714D01*
X71103571Y-54135714D02*
X71103571Y-53835714D01*
X71175000Y-53835714D01*
X71217857Y-53850000D01*
X71246428Y-53878571D01*
X71260714Y-53907142D01*
X71275000Y-53964285D01*
X71275000Y-54007142D01*
X71260714Y-54064285D01*
X71246428Y-54092857D01*
X71217857Y-54121428D01*
X71175000Y-54135714D01*
X71103571Y-54135714D01*
X71460714Y-53835714D02*
X71489285Y-53835714D01*
X71517857Y-53850000D01*
X71532142Y-53864285D01*
X71546428Y-53892857D01*
X71560714Y-53950000D01*
X71560714Y-54021428D01*
X71546428Y-54078571D01*
X71532142Y-54107142D01*
X71517857Y-54121428D01*
X71489285Y-54135714D01*
X71460714Y-54135714D01*
X71432142Y-54121428D01*
X71417857Y-54107142D01*
X71403571Y-54078571D01*
X71389285Y-54021428D01*
X71389285Y-53950000D01*
X71403571Y-53892857D01*
X71417857Y-53864285D01*
X71432142Y-53850000D01*
X71460714Y-53835714D01*
X75421428Y-54707142D02*
X75407142Y-54721428D01*
X75364285Y-54735714D01*
X75335714Y-54735714D01*
X75292857Y-54721428D01*
X75264285Y-54692857D01*
X75250000Y-54664285D01*
X75235714Y-54607142D01*
X75235714Y-54564285D01*
X75250000Y-54507142D01*
X75264285Y-54478571D01*
X75292857Y-54450000D01*
X75335714Y-54435714D01*
X75364285Y-54435714D01*
X75407142Y-54450000D01*
X75421428Y-54464285D01*
X75692857Y-54735714D02*
X75550000Y-54735714D01*
X75550000Y-54435714D01*
X75792857Y-54735714D02*
X75792857Y-54435714D01*
X75964285Y-54735714D02*
X75835714Y-54564285D01*
X75964285Y-54435714D02*
X75792857Y-54607142D01*
X73432857Y-64350714D02*
X73604285Y-64350714D01*
X73518571Y-64650714D02*
X73518571Y-64350714D01*
X73875714Y-64650714D02*
X73775714Y-64507857D01*
X73704285Y-64650714D02*
X73704285Y-64350714D01*
X73818571Y-64350714D01*
X73847142Y-64365000D01*
X73861428Y-64379285D01*
X73875714Y-64407857D01*
X73875714Y-64450714D01*
X73861428Y-64479285D01*
X73847142Y-64493571D01*
X73818571Y-64507857D01*
X73704285Y-64507857D01*
X74004285Y-64650714D02*
X74004285Y-64350714D01*
X74304285Y-64365000D02*
X74275714Y-64350714D01*
X74232857Y-64350714D01*
X74190000Y-64365000D01*
X74161428Y-64393571D01*
X74147142Y-64422142D01*
X74132857Y-64479285D01*
X74132857Y-64522142D01*
X74147142Y-64579285D01*
X74161428Y-64607857D01*
X74190000Y-64636428D01*
X74232857Y-64650714D01*
X74261428Y-64650714D01*
X74304285Y-64636428D01*
X74318571Y-64622142D01*
X74318571Y-64522142D01*
X74261428Y-64522142D01*
X72667857Y-65760714D02*
X72525000Y-65760714D01*
X72525000Y-65460714D01*
X72725000Y-65460714D02*
X72825000Y-65760714D01*
X72925000Y-65460714D01*
X73167857Y-65760714D02*
X73025000Y-65760714D01*
X73025000Y-65460714D01*
X73267857Y-65760714D02*
X73267857Y-65460714D01*
X73339285Y-65460714D01*
X73382142Y-65475000D01*
X73410714Y-65503571D01*
X73425000Y-65532142D01*
X73439285Y-65589285D01*
X73439285Y-65632142D01*
X73425000Y-65689285D01*
X73410714Y-65717857D01*
X73382142Y-65746428D01*
X73339285Y-65760714D01*
X73267857Y-65760714D01*
X78735714Y-59521428D02*
X78435714Y-59521428D01*
X78650000Y-59421428D01*
X78435714Y-59321428D01*
X78735714Y-59321428D01*
X78735714Y-59178571D02*
X78435714Y-59178571D01*
X78721428Y-59050000D02*
X78735714Y-59007142D01*
X78735714Y-58935714D01*
X78721428Y-58907142D01*
X78707142Y-58892857D01*
X78678571Y-58878571D01*
X78650000Y-58878571D01*
X78621428Y-58892857D01*
X78607142Y-58907142D01*
X78592857Y-58935714D01*
X78578571Y-58992857D01*
X78564285Y-59021428D01*
X78550000Y-59035714D01*
X78521428Y-59050000D01*
X78492857Y-59050000D01*
X78464285Y-59035714D01*
X78450000Y-59021428D01*
X78435714Y-58992857D01*
X78435714Y-58921428D01*
X78450000Y-58878571D01*
X78435714Y-58692857D02*
X78435714Y-58635714D01*
X78450000Y-58607142D01*
X78478571Y-58578571D01*
X78535714Y-58564285D01*
X78635714Y-58564285D01*
X78692857Y-58578571D01*
X78721428Y-58607142D01*
X78735714Y-58635714D01*
X78735714Y-58692857D01*
X78721428Y-58721428D01*
X78692857Y-58750000D01*
X78635714Y-58764285D01*
X78535714Y-58764285D01*
X78478571Y-58750000D01*
X78450000Y-58721428D01*
X78435714Y-58692857D01*
X69650000Y-54135714D02*
X69650000Y-53835714D01*
X69764285Y-53835714D01*
X69792857Y-53850000D01*
X69807142Y-53864285D01*
X69821428Y-53892857D01*
X69821428Y-53935714D01*
X69807142Y-53964285D01*
X69792857Y-53978571D01*
X69764285Y-53992857D01*
X69650000Y-53992857D01*
X70121428Y-54107142D02*
X70107142Y-54121428D01*
X70064285Y-54135714D01*
X70035714Y-54135714D01*
X69992857Y-54121428D01*
X69964285Y-54092857D01*
X69950000Y-54064285D01*
X69935714Y-54007142D01*
X69935714Y-53964285D01*
X69950000Y-53907142D01*
X69964285Y-53878571D01*
X69992857Y-53850000D01*
X70035714Y-53835714D01*
X70064285Y-53835714D01*
X70107142Y-53850000D01*
X70121428Y-53864285D01*
X70392857Y-54135714D02*
X70250000Y-54135714D01*
X70250000Y-53835714D01*
X70492857Y-54135714D02*
X70492857Y-53835714D01*
X70664285Y-54135714D02*
X70535714Y-53964285D01*
X70664285Y-53835714D02*
X70492857Y-54007142D01*
X72035000Y-69825714D02*
X71935000Y-69682857D01*
X71863571Y-69825714D02*
X71863571Y-69525714D01*
X71977857Y-69525714D01*
X72006428Y-69540000D01*
X72020714Y-69554285D01*
X72035000Y-69582857D01*
X72035000Y-69625714D01*
X72020714Y-69654285D01*
X72006428Y-69668571D01*
X71977857Y-69682857D01*
X71863571Y-69682857D01*
X72135000Y-69525714D02*
X72335000Y-69825714D01*
X72335000Y-69525714D02*
X72135000Y-69825714D01*
X67705714Y-62871428D02*
X67405714Y-62871428D01*
X67705714Y-62728571D02*
X67405714Y-62728571D01*
X67705714Y-62557142D01*
X67405714Y-62557142D01*
X67405714Y-62457142D02*
X67405714Y-62285714D01*
X67705714Y-62371428D02*
X67405714Y-62371428D01*
D11*
X75035714Y-55140476D02*
X75035714Y-54940476D01*
X75102380Y-55083333D01*
X75169047Y-54940476D01*
X75169047Y-55140476D01*
X75302380Y-54940476D02*
X75340476Y-54940476D01*
X75359523Y-54950000D01*
X75378571Y-54969047D01*
X75388095Y-55007142D01*
X75388095Y-55073809D01*
X75378571Y-55111904D01*
X75359523Y-55130952D01*
X75340476Y-55140476D01*
X75302380Y-55140476D01*
X75283333Y-55130952D01*
X75264285Y-55111904D01*
X75254761Y-55073809D01*
X75254761Y-55007142D01*
X75264285Y-54969047D01*
X75283333Y-54950000D01*
X75302380Y-54940476D01*
X75464285Y-55130952D02*
X75492857Y-55140476D01*
X75540476Y-55140476D01*
X75559523Y-55130952D01*
X75569047Y-55121428D01*
X75578571Y-55102380D01*
X75578571Y-55083333D01*
X75569047Y-55064285D01*
X75559523Y-55054761D01*
X75540476Y-55045238D01*
X75502380Y-55035714D01*
X75483333Y-55026190D01*
X75473809Y-55016666D01*
X75464285Y-54997619D01*
X75464285Y-54978571D01*
X75473809Y-54959523D01*
X75483333Y-54950000D01*
X75502380Y-54940476D01*
X75550000Y-54940476D01*
X75578571Y-54950000D01*
X75664285Y-55140476D02*
X75664285Y-54940476D01*
D10*
X72803571Y-54135714D02*
X72803571Y-53835714D01*
X72875000Y-53835714D01*
X72917857Y-53850000D01*
X72946428Y-53878571D01*
X72960714Y-53907142D01*
X72975000Y-53964285D01*
X72975000Y-54007142D01*
X72960714Y-54064285D01*
X72946428Y-54092857D01*
X72917857Y-54121428D01*
X72875000Y-54135714D01*
X72803571Y-54135714D01*
X73089285Y-53864285D02*
X73103571Y-53850000D01*
X73132142Y-53835714D01*
X73203571Y-53835714D01*
X73232142Y-53850000D01*
X73246428Y-53864285D01*
X73260714Y-53892857D01*
X73260714Y-53921428D01*
X73246428Y-53964285D01*
X73075000Y-54135714D01*
X73260714Y-54135714D01*
X79885714Y-59414285D02*
X79585714Y-59414285D01*
X79885714Y-59271428D02*
X79585714Y-59271428D01*
X79885714Y-59100000D01*
X79585714Y-59100000D01*
X79585714Y-59000000D02*
X79585714Y-58828571D01*
X79885714Y-58914285D02*
X79585714Y-58914285D01*
X79885714Y-58571428D02*
X79885714Y-58742857D01*
X79885714Y-58657142D02*
X79585714Y-58657142D01*
X79628571Y-58685714D01*
X79657142Y-58714285D01*
X79671428Y-58742857D01*
X71207857Y-66868571D02*
X71107857Y-66868571D01*
X71107857Y-67025714D02*
X71107857Y-66725714D01*
X71250714Y-66725714D01*
X71322142Y-66725714D02*
X71422142Y-67025714D01*
X71522142Y-66725714D01*
X71765000Y-67025714D02*
X71622142Y-67025714D01*
X71622142Y-66725714D01*
X71865000Y-67025714D02*
X71865000Y-66725714D01*
X71936428Y-66725714D01*
X71979285Y-66740000D01*
X72007857Y-66768571D01*
X72022142Y-66797142D01*
X72036428Y-66854285D01*
X72036428Y-66897142D01*
X72022142Y-66954285D01*
X72007857Y-66982857D01*
X71979285Y-67011428D01*
X71936428Y-67025714D01*
X71865000Y-67025714D01*
D12*
X79268571Y-54263095D02*
X79268571Y-54013095D01*
X79382857Y-54263095D02*
X79382857Y-54013095D01*
X79520000Y-54263095D01*
X79520000Y-54013095D01*
X79600000Y-54013095D02*
X79737142Y-54013095D01*
X79668571Y-54263095D02*
X79668571Y-54013095D01*
X79805714Y-54036904D02*
X79817142Y-54025000D01*
X79840000Y-54013095D01*
X79897142Y-54013095D01*
X79920000Y-54025000D01*
X79931428Y-54036904D01*
X79942857Y-54060714D01*
X79942857Y-54084523D01*
X79931428Y-54120238D01*
X79794285Y-54263095D01*
X79942857Y-54263095D01*
D10*
X72003571Y-54135714D02*
X72003571Y-53835714D01*
X72075000Y-53835714D01*
X72117857Y-53850000D01*
X72146428Y-53878571D01*
X72160714Y-53907142D01*
X72175000Y-53964285D01*
X72175000Y-54007142D01*
X72160714Y-54064285D01*
X72146428Y-54092857D01*
X72117857Y-54121428D01*
X72075000Y-54135714D01*
X72003571Y-54135714D01*
X72460714Y-54135714D02*
X72289285Y-54135714D01*
X72375000Y-54135714D02*
X72375000Y-53835714D01*
X72346428Y-53878571D01*
X72317857Y-53907142D01*
X72289285Y-53921428D01*
X68128571Y-54085714D02*
X68128571Y-53785714D01*
X68228571Y-54000000D01*
X68328571Y-53785714D01*
X68328571Y-54085714D01*
X68642857Y-54057142D02*
X68628571Y-54071428D01*
X68585714Y-54085714D01*
X68557142Y-54085714D01*
X68514285Y-54071428D01*
X68485714Y-54042857D01*
X68471428Y-54014285D01*
X68457142Y-53957142D01*
X68457142Y-53914285D01*
X68471428Y-53857142D01*
X68485714Y-53828571D01*
X68514285Y-53800000D01*
X68557142Y-53785714D01*
X68585714Y-53785714D01*
X68628571Y-53800000D01*
X68642857Y-53814285D01*
X68914285Y-54085714D02*
X68771428Y-54085714D01*
X68771428Y-53785714D01*
X69014285Y-54085714D02*
X69014285Y-53785714D01*
X69185714Y-54085714D02*
X69057142Y-53914285D01*
X69185714Y-53785714D02*
X69014285Y-53957142D01*
D13*
X77267836Y-75250000D02*
X77052164Y-75250000D01*
X77267836Y-74530000D02*
X77052164Y-74530000D01*
D11*
X76170000Y-54040000D02*
G75*
G03*
X76170000Y-54040000I-280000J0D01*
G01*
D13*
X77290000Y-79022164D02*
X77290000Y-79237836D01*
X78010000Y-79022164D02*
X78010000Y-79237836D01*
X77644799Y-78016500D02*
X77878600Y-78016500D01*
X77878600Y-75603500D02*
X77644799Y-75603500D01*
X77788940Y-77610100D02*
X78005600Y-77610100D01*
X77878600Y-78016500D02*
X77878600Y-75603500D01*
X74881400Y-78016500D02*
X75115201Y-78016500D01*
X74971060Y-77610100D02*
X74754400Y-77610100D01*
X75115201Y-75603500D02*
X74881400Y-75603500D01*
X74881400Y-75603500D02*
X74881400Y-78016500D01*
G36*
X69590500Y-71657700D02*
G01*
X69209500Y-71657700D01*
X69209500Y-71403700D01*
X69590500Y-71403700D01*
X69590500Y-71657700D01*
G37*
D14*
X69590500Y-71657700D02*
X69209500Y-71657700D01*
X69209500Y-71403700D01*
X69590500Y-71403700D01*
X69590500Y-71657700D01*
G36*
X64390500Y-62996300D02*
G01*
X64009500Y-62996300D01*
X64009500Y-62742300D01*
X64390500Y-62742300D01*
X64390500Y-62996300D01*
G37*
X64390500Y-62996300D02*
X64009500Y-62996300D01*
X64009500Y-62742300D01*
X64390500Y-62742300D01*
X64390500Y-62996300D01*
G36*
X62596300Y-69990500D02*
G01*
X62342300Y-69990500D01*
X62342300Y-69609500D01*
X62596300Y-69609500D01*
X62596300Y-69990500D01*
G37*
X62596300Y-69990500D02*
X62342300Y-69990500D01*
X62342300Y-69609500D01*
X62596300Y-69609500D01*
X62596300Y-69990500D01*
D15*
X72430000Y-76000000D02*
X72430000Y-79000000D01*
X69930000Y-76000000D02*
X69930000Y-79000000D01*
D16*
X71480000Y-74800000D02*
G75*
G03*
X71480000Y-74800000I-100000J0D01*
G01*
D13*
X67470000Y-58237836D02*
X67470000Y-58022164D01*
X68190000Y-58237836D02*
X68190000Y-58022164D01*
D11*
X74105000Y-54600000D02*
G75*
G03*
X74105000Y-54600000I-280000J0D01*
G01*
D13*
X79865000Y-63090000D02*
X79655000Y-63090000D01*
X75565000Y-70710000D02*
X75565000Y-70050000D01*
X74865000Y-68660000D02*
X75255000Y-68660000D01*
X79865000Y-70710000D02*
X79655000Y-70710000D01*
X77295000Y-70710000D02*
X75565000Y-70710000D01*
X75565000Y-63090000D02*
X75565000Y-63740000D01*
X74865000Y-68660000D02*
X74865000Y-68210000D01*
X77295000Y-63090000D02*
X75565000Y-63090000D01*
X75660000Y-79012164D02*
X75660000Y-79227836D01*
X74940000Y-79012164D02*
X74940000Y-79227836D01*
D11*
X72260000Y-69000000D02*
G75*
G03*
X72260000Y-69000000I-280000J0D01*
G01*
D13*
X75047836Y-75250000D02*
X74832164Y-75250000D01*
X75047836Y-74530000D02*
X74832164Y-74530000D01*
D11*
X71680000Y-54600000D02*
G75*
G03*
X71680000Y-54600000I-280000J0D01*
G01*
X75430000Y-54040000D02*
G75*
G03*
X75430000Y-54040000I-280000J0D01*
G01*
X73300000Y-64420000D02*
G75*
G03*
X73300000Y-64420000I-280000J0D01*
G01*
X72400000Y-65270000D02*
G75*
G03*
X72400000Y-65270000I-280000J0D01*
G01*
D13*
X76660000Y-79012164D02*
X76660000Y-79227836D01*
X75940000Y-79012164D02*
X75940000Y-79227836D01*
D15*
X68600000Y-56900000D02*
X68600000Y-58100000D01*
X75900000Y-56900000D02*
X75900000Y-58100000D01*
D16*
X74550000Y-59950000D02*
G75*
G03*
X74550000Y-59950000I-100000J0D01*
G01*
D11*
X78490000Y-58270000D02*
G75*
G03*
X78490000Y-58270000I-280000J0D01*
G01*
X70880000Y-54600000D02*
G75*
G03*
X70880000Y-54600000I-280000J0D01*
G01*
X71710000Y-69620000D02*
G75*
G03*
X71710000Y-69620000I-280000J0D01*
G01*
X68380000Y-62600000D02*
G75*
G03*
X68380000Y-62600000I-280000J0D01*
G01*
D13*
X79087836Y-77700000D02*
X78872164Y-77700000D01*
X79087836Y-76980000D02*
X78872164Y-76980000D01*
X73897836Y-76480000D02*
X73682164Y-76480000D01*
X73897836Y-77200000D02*
X73682164Y-77200000D01*
D11*
X74960000Y-54750000D02*
G75*
G03*
X74960000Y-54750000I-280000J0D01*
G01*
X73280000Y-54600000D02*
G75*
G03*
X73280000Y-54600000I-280000J0D01*
G01*
X79780000Y-58250000D02*
G75*
G03*
X79780000Y-58250000I-280000J0D01*
G01*
D14*
X69170000Y-77177500D02*
G75*
G03*
X69170000Y-77177500I-50000J0D01*
G01*
D13*
X79147836Y-75570000D02*
X78932164Y-75570000D01*
X79147836Y-74850000D02*
X78932164Y-74850000D01*
X77174165Y-58860000D02*
X77405835Y-58860000D01*
X77174165Y-59580000D02*
X77405835Y-59580000D01*
D15*
X78915000Y-57442500D02*
X78970000Y-57442500D01*
X78970000Y-54997500D02*
X78970000Y-54442500D01*
X76470000Y-54442500D02*
X76525000Y-54442500D01*
X76470000Y-57442500D02*
X76470000Y-56887500D01*
X76470000Y-57442500D02*
X76525000Y-57442500D01*
X78970000Y-57442500D02*
X78970000Y-56887500D01*
X78915000Y-54442500D02*
X78970000Y-54442500D01*
X76470000Y-54997500D02*
X76470000Y-54442500D01*
D17*
X76895000Y-57942500D02*
G75*
G03*
X76895000Y-57942500I-75000J0D01*
G01*
D11*
X71690000Y-66320000D02*
G75*
G03*
X71690000Y-66320000I-280000J0D01*
G01*
D14*
X68170000Y-77170000D02*
G75*
G03*
X68170000Y-77170000I-50000J0D01*
G01*
D11*
X79920000Y-54960000D02*
G75*
G03*
X79920000Y-54960000I-280000J0D01*
G01*
D13*
X67470000Y-55577836D02*
X67470000Y-55362164D01*
X68190000Y-55577836D02*
X68190000Y-55362164D01*
G36*
X72840697Y-67114194D02*
G01*
X72889983Y-67116794D01*
X72891829Y-67156796D01*
X72892038Y-67182160D01*
X72890419Y-67199632D01*
X72889231Y-67203082D01*
X72879878Y-67207325D01*
X72862440Y-67209132D01*
X72841169Y-67208633D01*
X72820314Y-67205961D01*
X72804129Y-67201246D01*
X72802426Y-67200403D01*
X72791359Y-67192434D01*
X72790719Y-67183769D01*
X72793431Y-67178362D01*
X72805249Y-67167990D01*
X72817489Y-67164381D01*
X72826965Y-67163352D01*
X72825578Y-67161086D01*
X72813030Y-67156511D01*
X72796727Y-67148988D01*
X72785641Y-67140257D01*
X72785286Y-67139781D01*
X72781134Y-67127315D01*
X72788949Y-67118826D01*
X72808535Y-67114405D01*
X72839694Y-67114143D01*
X72840697Y-67114194D01*
G37*
G36*
X72812542Y-66298251D02*
G01*
X72875153Y-66312781D01*
X72902452Y-66322785D01*
X72950967Y-66346631D01*
X73002346Y-66378018D01*
X73053467Y-66414578D01*
X73101204Y-66453944D01*
X73142435Y-66493749D01*
X73168984Y-66524774D01*
X73182288Y-66546544D01*
X73184855Y-66566080D01*
X73176863Y-66588538D01*
X73171540Y-66598155D01*
X73160089Y-66618997D01*
X73151753Y-66636358D01*
X73151277Y-66637536D01*
X73147637Y-66642095D01*
X73141138Y-66640948D01*
X73130175Y-66632842D01*
X73113149Y-66616523D01*
X73088455Y-66590735D01*
X73080140Y-66581851D01*
X73029682Y-66532175D01*
X72976392Y-66487544D01*
X72923353Y-66450208D01*
X72873648Y-66422418D01*
X72846340Y-66411136D01*
X72777093Y-66395899D01*
X72708571Y-66397372D01*
X72641714Y-66414635D01*
X72577460Y-66446768D01*
X72516748Y-66492851D01*
X72460516Y-66551963D01*
X72409703Y-66623185D01*
X72365248Y-66705596D01*
X72328088Y-66798276D01*
X72299164Y-66900306D01*
X72287261Y-66959183D01*
X72277554Y-67036637D01*
X72273154Y-67123090D01*
X72274064Y-67211702D01*
X72280286Y-67295634D01*
X72287149Y-67344268D01*
X72311555Y-67450891D01*
X72345599Y-67549540D01*
X72388330Y-67638820D01*
X72438800Y-67717333D01*
X72496058Y-67783681D01*
X72559155Y-67836470D01*
X72627142Y-67874301D01*
X72654493Y-67884607D01*
X72700481Y-67894659D01*
X72752808Y-67897934D01*
X72806339Y-67894548D01*
X72855937Y-67884618D01*
X72871279Y-67879668D01*
X72928338Y-67853269D01*
X72988349Y-67815214D01*
X73047138Y-67768318D01*
X73074954Y-67742253D01*
X73095743Y-67722517D01*
X73112129Y-67708607D01*
X73121945Y-67702267D01*
X73123782Y-67702895D01*
X73127948Y-67713504D01*
X73138717Y-67731559D01*
X73149688Y-67747470D01*
X73175593Y-67783020D01*
X73158041Y-67808927D01*
X73138101Y-67831811D01*
X73108204Y-67857520D01*
X73070509Y-67884709D01*
X73027175Y-67912029D01*
X72980359Y-67938134D01*
X72932221Y-67961676D01*
X72884918Y-67981307D01*
X72877513Y-67984016D01*
X72799123Y-68004661D01*
X72724171Y-68008984D01*
X72679904Y-68003697D01*
X72602082Y-67980690D01*
X72529584Y-67942790D01*
X72462843Y-67891327D01*
X72402295Y-67827628D01*
X72348373Y-67753022D01*
X72301512Y-67668838D01*
X72262146Y-67576403D01*
X72230710Y-67477047D01*
X72207637Y-67372098D01*
X72193363Y-67262884D01*
X72188321Y-67150733D01*
X72192946Y-67036975D01*
X72207672Y-66922938D01*
X72232933Y-66809950D01*
X72260799Y-66721822D01*
X72304538Y-66618114D01*
X72356134Y-66527416D01*
X72415049Y-66450339D01*
X72480745Y-66387496D01*
X72552686Y-66339499D01*
X72622923Y-66309305D01*
X72681822Y-66296291D01*
X72746563Y-66292680D01*
X72812542Y-66298251D01*
G37*
G36*
X74141332Y-67464698D02*
G01*
X74170233Y-67479489D01*
X74200000Y-67491611D01*
X74232472Y-67501431D01*
X74269486Y-67509320D01*
X74312880Y-67515649D01*
X74364493Y-67520785D01*
X74426160Y-67525100D01*
X74447749Y-67526336D01*
X74489458Y-67528741D01*
X74526827Y-67531116D01*
X74558115Y-67533333D01*
X74581584Y-67535262D01*
X74595494Y-67536776D01*
X74598597Y-67537491D01*
X74599642Y-67546887D01*
X74601078Y-67570687D01*
X74602743Y-67605679D01*
X74604476Y-67648652D01*
X74605136Y-67666891D01*
X74606791Y-67716289D01*
X74607607Y-67750641D01*
X74607428Y-67772506D01*
X74606094Y-67784445D01*
X74603450Y-67789017D01*
X74599338Y-67788782D01*
X74597685Y-67788110D01*
X74587073Y-67785068D01*
X74566019Y-67780329D01*
X74536469Y-67774251D01*
X74500364Y-67767189D01*
X74459649Y-67759501D01*
X74416268Y-67751544D01*
X74372163Y-67743674D01*
X74329278Y-67736250D01*
X74289557Y-67729627D01*
X74254943Y-67724164D01*
X74229906Y-67720552D01*
X74190517Y-67716032D01*
X74160065Y-67715385D01*
X74135159Y-67719853D01*
X74112405Y-67730681D01*
X74088413Y-67749112D01*
X74059788Y-67776389D01*
X74049629Y-67786648D01*
X74018854Y-67818807D01*
X73980849Y-67859886D01*
X73937861Y-67907340D01*
X73892134Y-67958622D01*
X73845912Y-68011188D01*
X73801441Y-68062493D01*
X73760966Y-68109990D01*
X73726730Y-68151135D01*
X73710879Y-68170755D01*
X73689394Y-68197505D01*
X73671453Y-68218081D01*
X73654964Y-68233304D01*
X73637837Y-68243998D01*
X73617981Y-68250983D01*
X73593304Y-68255081D01*
X73561716Y-68257114D01*
X73521124Y-68257904D01*
X73488510Y-68258142D01*
X73411376Y-68260251D01*
X73344566Y-68265479D01*
X73288665Y-68273754D01*
X73244258Y-68285002D01*
X73230404Y-68290088D01*
X73201450Y-68299219D01*
X73181994Y-68298495D01*
X73171005Y-68287502D01*
X73167451Y-68265829D01*
X73167448Y-68264960D01*
X73173583Y-68225092D01*
X73191683Y-68188280D01*
X73221398Y-68154841D01*
X73262375Y-68125092D01*
X73314264Y-68099354D01*
X73373169Y-68078955D01*
X73396241Y-68072987D01*
X73428118Y-68065699D01*
X73465223Y-68057864D01*
X73503980Y-68050253D01*
X73519683Y-68047346D01*
X73567962Y-68038251D01*
X73608358Y-68029186D01*
X73642576Y-68018755D01*
X73672321Y-68005563D01*
X73699300Y-67988214D01*
X73725218Y-67965313D01*
X73751780Y-67935462D01*
X73780691Y-67897267D01*
X73813658Y-67849332D01*
X73852385Y-67790260D01*
X73873214Y-67758016D01*
X73905062Y-67708982D01*
X73939110Y-67657180D01*
X73972674Y-67606652D01*
X74003067Y-67561443D01*
X74026057Y-67527830D01*
X74089770Y-67435885D01*
X74141332Y-67464698D01*
G37*
G36*
X73130583Y-65981102D02*
G01*
X73152236Y-65987170D01*
X73194609Y-66000695D01*
X73247102Y-66014431D01*
X73307375Y-66027898D01*
X73373088Y-66040616D01*
X73441901Y-66052104D01*
X73511474Y-66061881D01*
X73522801Y-66063288D01*
X73554520Y-66067643D01*
X73583306Y-66072483D01*
X73605995Y-66077219D01*
X73619421Y-66081262D01*
X73619438Y-66081269D01*
X73631726Y-66091610D01*
X73650330Y-66113469D01*
X73673617Y-66144785D01*
X73697336Y-66179518D01*
X73723522Y-66218218D01*
X73754336Y-66262110D01*
X73788322Y-66309273D01*
X73824021Y-66357787D01*
X73859977Y-66405730D01*
X73894731Y-66451180D01*
X73926827Y-66492218D01*
X73954806Y-66526921D01*
X73977212Y-66553369D01*
X73992586Y-66569640D01*
X73994782Y-66571581D01*
X74018941Y-66586618D01*
X74046606Y-66596696D01*
X74054011Y-66598119D01*
X74073442Y-66598508D01*
X74104124Y-66595947D01*
X74145037Y-66590611D01*
X74195158Y-66582673D01*
X74253468Y-66572307D01*
X74318945Y-66559686D01*
X74390568Y-66544986D01*
X74467316Y-66528378D01*
X74478833Y-66525817D01*
X74519040Y-66516926D01*
X74555343Y-66509051D01*
X74585849Y-66502591D01*
X74608667Y-66497944D01*
X74621904Y-66495508D01*
X74624217Y-66495239D01*
X74630838Y-66502368D01*
X74631680Y-66510667D01*
X74630912Y-66525100D01*
X74629470Y-66553134D01*
X74627558Y-66590780D01*
X74625380Y-66634049D01*
X74625293Y-66635781D01*
X74623000Y-66677816D01*
X74620728Y-66713025D01*
X74618727Y-66737919D01*
X74617247Y-66749009D01*
X74617152Y-66749206D01*
X74610415Y-66750652D01*
X74593072Y-66752580D01*
X74566978Y-66754834D01*
X74533989Y-66757261D01*
X74495958Y-66759704D01*
X74481700Y-66760540D01*
X74414205Y-66764659D01*
X74357036Y-66768874D01*
X74308051Y-66773567D01*
X74265109Y-66779115D01*
X74226068Y-66785898D01*
X74188786Y-66794294D01*
X74151122Y-66804682D01*
X74110933Y-66817442D01*
X74066079Y-66832953D01*
X74059752Y-66835206D01*
X73925683Y-66883067D01*
X73872315Y-66802365D01*
X73828078Y-66733577D01*
X73789356Y-66668759D01*
X73752569Y-66601620D01*
X73714137Y-66525868D01*
X73708979Y-66515358D01*
X73683630Y-66464917D01*
X73661089Y-66424589D01*
X73639350Y-66392700D01*
X73616402Y-66367577D01*
X73590238Y-66347546D01*
X73558849Y-66330933D01*
X73520226Y-66316064D01*
X73472362Y-66301266D01*
X73441750Y-66292656D01*
X73380839Y-66274905D01*
X73330716Y-66258068D01*
X73289754Y-66241418D01*
X73256324Y-66224226D01*
X73228801Y-66205767D01*
X73208977Y-66188676D01*
X73178627Y-66156961D01*
X73149935Y-66122486D01*
X73124633Y-66087799D01*
X73104452Y-66055450D01*
X73091122Y-66027987D01*
X73086374Y-66008140D01*
X73091611Y-65989898D01*
X73106673Y-65980782D01*
X73130583Y-65981102D01*
G37*
G36*
X72604838Y-67658670D02*
G01*
X72549444Y-67620091D01*
X72496285Y-67564185D01*
X72474873Y-67535868D01*
X72429897Y-67461371D01*
X72396583Y-67380638D01*
X72374907Y-67293583D01*
X72364846Y-67200120D01*
X72364870Y-67152059D01*
X72423234Y-67152059D01*
X72424942Y-67217543D01*
X72431514Y-67273698D01*
X72444188Y-67328064D01*
X72460099Y-67376877D01*
X72489416Y-67440268D01*
X72528143Y-67495581D01*
X72573991Y-67540836D01*
X72624668Y-67574053D01*
X72677885Y-67593250D01*
X72714937Y-67597287D01*
X72756482Y-67592728D01*
X72798243Y-67578360D01*
X72841984Y-67553139D01*
X72889471Y-67516025D01*
X72942472Y-67465977D01*
X72949212Y-67459128D01*
X72988887Y-67419231D01*
X73021270Y-67388794D01*
X73048806Y-67366265D01*
X73073939Y-67350090D01*
X73099115Y-67338717D01*
X73126778Y-67330592D01*
X73159375Y-67324163D01*
X73162543Y-67323630D01*
X73196658Y-67317605D01*
X73220294Y-67311775D01*
X73235370Y-67304503D01*
X73243808Y-67294148D01*
X73247529Y-67279071D01*
X73247879Y-67270972D01*
X73309866Y-67270972D01*
X73310469Y-67295683D01*
X73312556Y-67311173D01*
X73313300Y-67312788D01*
X73320820Y-67314258D01*
X73336242Y-67312843D01*
X73345274Y-67311181D01*
X73373094Y-67300126D01*
X73390177Y-67280663D01*
X73396984Y-67252131D01*
X73396904Y-67237517D01*
X73394990Y-67204957D01*
X73368048Y-67202991D01*
X73358232Y-67202275D01*
X73337474Y-67202161D01*
X73321691Y-67204633D01*
X73315545Y-67207977D01*
X73312547Y-67220473D01*
X73310606Y-67243686D01*
X73309866Y-67270972D01*
X73247879Y-67270972D01*
X73248455Y-67257633D01*
X73248476Y-67250308D01*
X73246442Y-67214083D01*
X73240446Y-67193513D01*
X73239241Y-67191871D01*
X73226114Y-67185594D01*
X73200958Y-67183497D01*
X73180325Y-67184225D01*
X73154785Y-67186409D01*
X73137944Y-67190081D01*
X73126033Y-67196925D01*
X73115283Y-67208621D01*
X73110068Y-67215576D01*
X73096116Y-67232642D01*
X73080489Y-67246776D01*
X73061128Y-67259042D01*
X73035976Y-67270507D01*
X73002974Y-67282238D01*
X72960063Y-67295299D01*
X72951190Y-67297856D01*
X72887367Y-67318776D01*
X72835479Y-67341533D01*
X72810632Y-67355741D01*
X72774392Y-67375771D01*
X72745528Y-67383985D01*
X72735265Y-67382363D01*
X72722101Y-67380283D01*
X72702171Y-67364567D01*
X72691322Y-67349709D01*
X72679926Y-67328655D01*
X72675729Y-67308886D01*
X72676453Y-67286365D01*
X72710761Y-67286365D01*
X72712891Y-67312776D01*
X72721268Y-67330430D01*
X72735265Y-67337502D01*
X72756182Y-67333990D01*
X72785323Y-67319891D01*
X72797392Y-67312651D01*
X72823782Y-67298381D01*
X72857746Y-67283053D01*
X72894576Y-67268666D01*
X72924273Y-67258773D01*
X72977931Y-67241732D01*
X73020620Y-67226101D01*
X73053763Y-67211302D01*
X73078780Y-67196757D01*
X73081698Y-67194720D01*
X73095599Y-67177338D01*
X73098400Y-67155296D01*
X73090069Y-67132059D01*
X73082397Y-67121820D01*
X73061893Y-67105190D01*
X73029981Y-67088372D01*
X72986327Y-67071220D01*
X72930596Y-67053587D01*
X72921156Y-67050886D01*
X72886104Y-67039297D01*
X72849850Y-67024522D01*
X72817807Y-67008866D01*
X72805030Y-67001413D01*
X72778286Y-66984969D01*
X72759945Y-66975607D01*
X72747178Y-66972741D01*
X72737160Y-66975784D01*
X72727064Y-66984149D01*
X72726151Y-66985048D01*
X72714865Y-67006053D01*
X72712668Y-67034934D01*
X72719499Y-67067588D01*
X72727675Y-67086837D01*
X72740441Y-67111680D01*
X72752087Y-67134310D01*
X72753743Y-67137521D01*
X72759198Y-67148909D01*
X72760810Y-67158477D01*
X72757574Y-67170298D01*
X72748487Y-67188445D01*
X72735423Y-67211868D01*
X72718114Y-67250594D01*
X72710761Y-67286365D01*
X72676453Y-67286365D01*
X72676582Y-67282362D01*
X72684819Y-67240864D01*
X72699114Y-67205040D01*
X72710070Y-67181695D01*
X72717110Y-67163288D01*
X72718530Y-67156713D01*
X72714878Y-67144438D01*
X72705577Y-67124426D01*
X72698928Y-67112125D01*
X72682996Y-67075117D01*
X72676425Y-67034936D01*
X72675514Y-67007379D01*
X72678783Y-66989027D01*
X72688120Y-66971753D01*
X72692645Y-66965200D01*
X72712847Y-66942835D01*
X72734839Y-66932485D01*
X72761151Y-66933786D01*
X72794312Y-66946379D01*
X72801014Y-66949720D01*
X72847543Y-66972670D01*
X72890337Y-66991601D01*
X72934476Y-67008588D01*
X72985047Y-67025710D01*
X72994202Y-67028641D01*
X73029568Y-67040707D01*
X73056078Y-67052077D01*
X73077214Y-67064598D01*
X73096458Y-67080118D01*
X73103309Y-67086520D01*
X73122846Y-67104453D01*
X73138113Y-67114821D01*
X73154054Y-67119688D01*
X73175612Y-67121113D01*
X73186441Y-67121181D01*
X73213068Y-67119759D01*
X73232291Y-67115812D01*
X73240994Y-67110622D01*
X73246426Y-67093213D01*
X73248438Y-67066176D01*
X73247656Y-67047835D01*
X73309332Y-67047835D01*
X73310708Y-67077120D01*
X73313275Y-67094971D01*
X73318190Y-67104454D01*
X73328874Y-67108684D01*
X73347566Y-67110682D01*
X73368048Y-67111394D01*
X73384053Y-67110271D01*
X73389571Y-67108755D01*
X73395927Y-67096915D01*
X73398113Y-67074762D01*
X73396329Y-67048501D01*
X73390774Y-67024334D01*
X73386553Y-67014813D01*
X73375672Y-67001478D01*
X73360220Y-66995286D01*
X73344623Y-66993999D01*
X73326322Y-66994375D01*
X73316831Y-66998357D01*
X73312503Y-67008725D01*
X73310784Y-67019813D01*
X73309332Y-67047835D01*
X73247656Y-67047835D01*
X73247184Y-67036775D01*
X73242820Y-67012275D01*
X73238678Y-67002810D01*
X73223778Y-66992712D01*
X73198541Y-66988908D01*
X73196594Y-66988889D01*
X73157642Y-66985872D01*
X73118589Y-66977740D01*
X73083743Y-66965645D01*
X73059457Y-66952263D01*
X73045334Y-66940582D01*
X73023693Y-66920866D01*
X72997073Y-66895507D01*
X72968013Y-66866896D01*
X72956127Y-66854927D01*
X72915930Y-66814888D01*
X72883177Y-66784157D01*
X72855617Y-66760949D01*
X72831004Y-66743479D01*
X72807087Y-66729961D01*
X72787538Y-66721040D01*
X72737001Y-66708704D01*
X72684202Y-66711961D01*
X72631371Y-66729954D01*
X72580736Y-66761825D01*
X72534528Y-66806717D01*
X72521272Y-66823383D01*
X72481043Y-66886325D01*
X72451953Y-66953620D01*
X72433281Y-67027688D01*
X72424303Y-67110950D01*
X72423234Y-67152059D01*
X72364870Y-67152059D01*
X72364883Y-67126360D01*
X72374632Y-67031097D01*
X72394951Y-66941668D01*
X72425007Y-66859939D01*
X72463969Y-66787773D01*
X72511005Y-66727037D01*
X72563497Y-66680851D01*
X72609840Y-66652268D01*
X72653546Y-66635380D01*
X72699599Y-66628747D01*
X72740351Y-66629765D01*
X72767489Y-66632739D01*
X72792087Y-66637769D01*
X72815668Y-66645896D01*
X72839752Y-66658159D01*
X72865865Y-66675600D01*
X72895528Y-66699259D01*
X72930263Y-66730176D01*
X72971594Y-66769392D01*
X73021043Y-66817947D01*
X73032732Y-66829558D01*
X73056036Y-66851098D01*
X73078804Y-66869408D01*
X73096774Y-66881110D01*
X73099452Y-66882376D01*
X73112840Y-66885821D01*
X73136388Y-66889586D01*
X73167793Y-66893397D01*
X73204754Y-66896981D01*
X73244968Y-66900065D01*
X73252849Y-66900576D01*
X73293265Y-66903482D01*
X73330721Y-66906855D01*
X73362955Y-66910439D01*
X73387704Y-66913976D01*
X73402707Y-66917210D01*
X73404342Y-66917799D01*
X73419729Y-66925884D01*
X73436360Y-66938668D01*
X73456785Y-66958425D01*
X73483554Y-66987428D01*
X73487871Y-66992264D01*
X73495447Y-66999960D01*
X73504116Y-67006666D01*
X73514713Y-67012436D01*
X73528075Y-67017322D01*
X73545036Y-67021378D01*
X73566434Y-67024657D01*
X73593102Y-67027214D01*
X73625878Y-67029100D01*
X73665597Y-67030369D01*
X73713094Y-67031075D01*
X73769206Y-67031271D01*
X73834767Y-67031011D01*
X73910614Y-67030347D01*
X73997582Y-67029333D01*
X74056586Y-67028564D01*
X74131031Y-67027669D01*
X74203118Y-67026995D01*
X74271670Y-67026543D01*
X74335509Y-67026311D01*
X74393459Y-67026297D01*
X74444341Y-67026502D01*
X74486978Y-67026923D01*
X74520194Y-67027560D01*
X74542810Y-67028412D01*
X74550682Y-67029013D01*
X74607631Y-67035312D01*
X74607631Y-67262264D01*
X74147825Y-67262697D01*
X74040269Y-67262919D01*
X73944574Y-67263388D01*
X73860135Y-67264128D01*
X73786346Y-67265163D01*
X73722600Y-67266518D01*
X73668291Y-67268216D01*
X73622812Y-67270282D01*
X73585558Y-67272740D01*
X73555922Y-67275614D01*
X73533297Y-67278928D01*
X73517078Y-67282707D01*
X73506658Y-67286974D01*
X73504556Y-67288365D01*
X73491578Y-67300604D01*
X73474795Y-67319427D01*
X73466950Y-67329102D01*
X73449631Y-67349756D01*
X73432653Y-67365822D01*
X73414026Y-67378016D01*
X73391765Y-67387058D01*
X73363882Y-67393666D01*
X73328390Y-67398558D01*
X73320820Y-67399212D01*
X73283302Y-67402453D01*
X73259589Y-67404056D01*
X73207581Y-67407664D01*
X73165813Y-67411726D01*
X73132063Y-67417219D01*
X73104105Y-67425120D01*
X73079718Y-67436406D01*
X73056677Y-67452054D01*
X73032759Y-67473042D01*
X73005741Y-67500346D01*
X72981396Y-67526321D01*
X72913623Y-67591687D01*
X72847789Y-67639731D01*
X72783944Y-67670452D01*
X72722138Y-67683849D01*
X72714937Y-67683375D01*
X72662420Y-67679922D01*
X72604838Y-67658670D01*
G37*
G36*
X73308461Y-66344151D02*
G01*
X73324987Y-66357475D01*
X73348703Y-66380982D01*
X73360175Y-66393086D01*
X73379187Y-66412090D01*
X73405429Y-66436610D01*
X73435322Y-66463369D01*
X73463047Y-66487215D01*
X73489269Y-66509786D01*
X73510732Y-66529997D01*
X73529843Y-66550759D01*
X73549012Y-66574983D01*
X73570646Y-66605580D01*
X73597154Y-66645459D01*
X73608934Y-66663543D01*
X73633992Y-66702490D01*
X73656380Y-66737970D01*
X73674602Y-66767557D01*
X73687162Y-66788825D01*
X73692370Y-66798806D01*
X73695542Y-66808560D01*
X73692647Y-66808948D01*
X73681845Y-66799604D01*
X73677936Y-66795933D01*
X73640348Y-66765626D01*
X73592517Y-66735510D01*
X73536644Y-66706927D01*
X73518905Y-66698966D01*
X73480512Y-66680353D01*
X73451264Y-66661428D01*
X73427906Y-66640043D01*
X73425385Y-66637257D01*
X73398883Y-66603945D01*
X73372814Y-66564985D01*
X73348298Y-66522823D01*
X73326458Y-66479904D01*
X73308413Y-66438675D01*
X73295286Y-66401581D01*
X73288198Y-66371068D01*
X73288268Y-66349582D01*
X73290818Y-66343672D01*
X73297584Y-66339916D01*
X73308461Y-66344151D01*
G37*
G36*
X73890541Y-67445635D02*
G01*
X73886451Y-67454260D01*
X73875533Y-67472441D01*
X73859672Y-67497116D01*
X73848457Y-67513930D01*
X73823822Y-67550480D01*
X73796388Y-67591336D01*
X73771307Y-67628823D01*
X73766640Y-67635822D01*
X73744352Y-67668002D01*
X73723937Y-67693793D01*
X73702699Y-67715658D01*
X73677947Y-67736062D01*
X73646986Y-67757466D01*
X73607124Y-67782336D01*
X73605100Y-67783562D01*
X73553490Y-67817872D01*
X73507121Y-67855993D01*
X73460977Y-67902259D01*
X73438295Y-67927642D01*
X73421835Y-67942751D01*
X73406103Y-67951459D01*
X73404005Y-67951944D01*
X73392499Y-67950456D01*
X73387602Y-67937788D01*
X73386786Y-67930160D01*
X73389609Y-67902069D01*
X73400768Y-67866342D01*
X73418605Y-67825890D01*
X73441464Y-67783626D01*
X73467688Y-67742462D01*
X73495621Y-67705310D01*
X73523606Y-67675082D01*
X73539557Y-67661611D01*
X73561798Y-67646879D01*
X73591169Y-67629826D01*
X73622854Y-67613178D01*
X73638142Y-67605819D01*
X73710477Y-67569448D01*
X73773462Y-67531436D01*
X73830212Y-67489862D01*
X73842327Y-67479916D01*
X73863500Y-67462806D01*
X73879932Y-67450709D01*
X73889269Y-67445299D01*
X73890541Y-67445635D01*
G37*
X73910000Y-79212164D02*
X73910000Y-79427836D01*
X74630000Y-79212164D02*
X74630000Y-79427836D01*
D11*
X72480000Y-54600000D02*
G75*
G03*
X72480000Y-54600000I-280000J0D01*
G01*
D13*
X73907836Y-78180000D02*
X73692164Y-78180000D01*
X73907836Y-77460000D02*
X73692164Y-77460000D01*
X79590000Y-79230378D02*
X79590000Y-80029622D01*
X78470000Y-79230378D02*
X78470000Y-80029622D01*
D11*
X69730000Y-54600000D02*
G75*
G03*
X69730000Y-54600000I-280000J0D01*
G01*
D13*
X78932164Y-76550000D02*
X79147836Y-76550000D01*
X78932164Y-75830000D02*
X79147836Y-75830000D01*
D18*
X68100000Y-62600000D03*
M02*
