G04 #@! TF.GenerationSoftware,KiCad,Pcbnew,(6.0.7-1)-1*
G04 #@! TF.CreationDate,2023-10-17T14:19:04-07:00*
G04 #@! TF.ProjectId,balsamic,62616c73-616d-4696-932e-6b696361645f,rev?*
G04 #@! TF.SameCoordinates,Original*
G04 #@! TF.FileFunction,Paste,Top*
G04 #@! TF.FilePolarity,Positive*
%FSLAX46Y46*%
G04 Gerber Fmt 4.6, Leading zero omitted, Abs format (unit mm)*
G04 Created by KiCad (PCBNEW (6.0.7-1)-1) date 2023-10-17 14:19:04*
%MOMM*%
%LPD*%
G01*
G04 APERTURE LIST*
G04 Aperture macros list*
%AMRoundRect*
0 Rectangle with rounded corners*
0 $1 Rounding radius*
0 $2 $3 $4 $5 $6 $7 $8 $9 X,Y pos of 4 corners*
0 Add a 4 corners polygon primitive as box body*
4,1,4,$2,$3,$4,$5,$6,$7,$8,$9,$2,$3,0*
0 Add four circle primitives for the rounded corners*
1,1,$1+$1,$2,$3*
1,1,$1+$1,$4,$5*
1,1,$1+$1,$6,$7*
1,1,$1+$1,$8,$9*
0 Add four rect primitives between the rounded corners*
20,1,$1+$1,$2,$3,$4,$5,0*
20,1,$1+$1,$4,$5,$6,$7,0*
20,1,$1+$1,$6,$7,$8,$9,0*
20,1,$1+$1,$8,$9,$2,$3,0*%
G04 Aperture macros list end*
%ADD10C,0.010000*%
%ADD11RoundRect,0.140000X0.140000X0.170000X-0.140000X0.170000X-0.140000X-0.170000X0.140000X-0.170000X0*%
%ADD12RoundRect,0.140000X-0.170000X0.140000X-0.170000X-0.140000X0.170000X-0.140000X0.170000X0.140000X0*%
%ADD13R,0.812800X0.812800*%
%ADD14R,0.406400X0.406400*%
%ADD15R,0.800000X1.700000*%
%ADD16RoundRect,0.140000X0.170000X-0.140000X0.170000X0.140000X-0.170000X0.140000X-0.170000X-0.140000X0*%
%ADD17RoundRect,0.079500X-0.079500X-0.100500X0.079500X-0.100500X0.079500X0.100500X-0.079500X0.100500X0*%
%ADD18R,1.400000X0.400000*%
%ADD19R,1.450000X1.150000*%
%ADD20R,1.900000X1.750000*%
%ADD21RoundRect,0.079500X0.079500X0.100500X-0.079500X0.100500X-0.079500X-0.100500X0.079500X-0.100500X0*%
%ADD22RoundRect,0.079500X0.100500X-0.079500X0.100500X0.079500X-0.100500X0.079500X-0.100500X-0.079500X0*%
%ADD23R,0.700000X1.200000*%
%ADD24RoundRect,0.079500X-0.100500X0.079500X-0.100500X-0.079500X0.100500X-0.079500X0.100500X0.079500X0*%
%ADD25RoundRect,0.147500X-0.172500X0.147500X-0.172500X-0.147500X0.172500X-0.147500X0.172500X0.147500X0*%
%ADD26C,0.254000*%
%ADD27RoundRect,0.155000X-0.212500X-0.155000X0.212500X-0.155000X0.212500X0.155000X-0.212500X0.155000X0*%
%ADD28R,0.250000X0.475000*%
%ADD29R,0.475000X0.250000*%
%ADD30RoundRect,0.250000X0.250000X0.504000X-0.250000X0.504000X-0.250000X-0.504000X0.250000X-0.504000X0*%
%ADD31RoundRect,0.218750X-0.381250X0.218750X-0.381250X-0.218750X0.381250X-0.218750X0.381250X0.218750X0*%
%ADD32RoundRect,0.140000X-0.140000X-0.170000X0.140000X-0.170000X0.140000X0.170000X-0.140000X0.170000X0*%
G04 APERTURE END LIST*
G36*
X71350000Y-59658519D02*
G01*
X71149160Y-59658519D01*
X71149160Y-59146999D01*
X71350000Y-59146999D01*
X71350000Y-59658519D01*
G37*
D10*
X71350000Y-59658519D02*
X71149160Y-59658519D01*
X71149160Y-59146999D01*
X71350000Y-59146999D01*
X71350000Y-59658519D01*
G36*
X72950000Y-59658319D02*
G01*
X72750331Y-59658319D01*
X72750331Y-59146999D01*
X72950000Y-59146999D01*
X72950000Y-59658319D01*
G37*
X72950000Y-59658319D02*
X72750331Y-59658319D01*
X72750331Y-59146999D01*
X72950000Y-59146999D01*
X72950000Y-59658319D01*
G36*
X72550000Y-59657329D02*
G01*
X72350017Y-59657329D01*
X72350017Y-59146999D01*
X72550000Y-59146999D01*
X72550000Y-59657329D01*
G37*
X72550000Y-59657329D02*
X72350017Y-59657329D01*
X72350017Y-59146999D01*
X72550000Y-59146999D01*
X72550000Y-59657329D01*
G36*
X70150000Y-59659519D02*
G01*
X69947100Y-59659519D01*
X69947100Y-59146999D01*
X70150000Y-59146999D01*
X70150000Y-59659519D01*
G37*
X70150000Y-59659519D02*
X69947100Y-59659519D01*
X69947100Y-59146999D01*
X70150000Y-59146999D01*
X70150000Y-59659519D01*
G36*
X71750000Y-56166669D02*
G01*
X71549844Y-56166669D01*
X71549844Y-55656999D01*
X71750000Y-55656999D01*
X71750000Y-56166669D01*
G37*
X71750000Y-56166669D02*
X71549844Y-56166669D01*
X71549844Y-55656999D01*
X71750000Y-55656999D01*
X71750000Y-56166669D01*
G36*
X73750000Y-56166829D02*
G01*
X73550150Y-56166829D01*
X73550150Y-55656999D01*
X73750000Y-55656999D01*
X73750000Y-56166829D01*
G37*
X73750000Y-56166829D02*
X73550150Y-56166829D01*
X73550150Y-55656999D01*
X73750000Y-55656999D01*
X73750000Y-56166829D01*
G36*
X73350000Y-59659859D02*
G01*
X73151288Y-59659859D01*
X73151288Y-59146999D01*
X73350000Y-59146999D01*
X73350000Y-59659859D01*
G37*
X73350000Y-59659859D02*
X73151288Y-59659859D01*
X73151288Y-59146999D01*
X73350000Y-59146999D01*
X73350000Y-59659859D01*
G36*
X74150000Y-59659289D02*
G01*
X73951940Y-59659289D01*
X73951940Y-59146999D01*
X74150000Y-59146999D01*
X74150000Y-59659289D01*
G37*
X74150000Y-59659289D02*
X73951940Y-59659289D01*
X73951940Y-59146999D01*
X74150000Y-59146999D01*
X74150000Y-59659289D01*
G36*
X72950000Y-56165669D02*
G01*
X72750448Y-56165669D01*
X72750448Y-55656999D01*
X72950000Y-55656999D01*
X72950000Y-56165669D01*
G37*
X72950000Y-56165669D02*
X72750448Y-56165669D01*
X72750448Y-55656999D01*
X72950000Y-55656999D01*
X72950000Y-56165669D01*
G36*
X73350000Y-56164189D02*
G01*
X73151698Y-56164189D01*
X73151698Y-55656999D01*
X73350000Y-55656999D01*
X73350000Y-56164189D01*
G37*
X73350000Y-56164189D02*
X73151698Y-56164189D01*
X73151698Y-55656999D01*
X73350000Y-55656999D01*
X73350000Y-56164189D01*
G36*
X70150000Y-56164739D02*
G01*
X69946510Y-56164739D01*
X69946510Y-55656999D01*
X70150000Y-55656999D01*
X70150000Y-56164739D01*
G37*
X70150000Y-56164739D02*
X69946510Y-56164739D01*
X69946510Y-55656999D01*
X70150000Y-55656999D01*
X70150000Y-56164739D01*
G36*
X72150000Y-56166529D02*
G01*
X71949905Y-56166529D01*
X71949905Y-55656999D01*
X72150000Y-55656999D01*
X72150000Y-56166529D01*
G37*
X72150000Y-56166529D02*
X71949905Y-56166529D01*
X71949905Y-55656999D01*
X72150000Y-55656999D01*
X72150000Y-56166529D01*
G36*
X70550000Y-56165519D02*
G01*
X70348110Y-56165519D01*
X70348110Y-55656999D01*
X70550000Y-55656999D01*
X70550000Y-56165519D01*
G37*
X70550000Y-56165519D02*
X70348110Y-56165519D01*
X70348110Y-55656999D01*
X70550000Y-55656999D01*
X70550000Y-56165519D01*
G36*
X74150000Y-56165269D02*
G01*
X73951980Y-56165269D01*
X73951980Y-55656999D01*
X74150000Y-55656999D01*
X74150000Y-56165269D01*
G37*
X74150000Y-56165269D02*
X73951980Y-56165269D01*
X73951980Y-55656999D01*
X74150000Y-55656999D01*
X74150000Y-56165269D01*
G36*
X74550000Y-56165399D02*
G01*
X74352260Y-56165399D01*
X74352260Y-55656999D01*
X74550000Y-55656999D01*
X74550000Y-56165399D01*
G37*
X74550000Y-56165399D02*
X74352260Y-56165399D01*
X74352260Y-55656999D01*
X74550000Y-55656999D01*
X74550000Y-56165399D01*
G36*
X71350000Y-56164349D02*
G01*
X71148040Y-56164349D01*
X71148040Y-55656999D01*
X71350000Y-55656999D01*
X71350000Y-56164349D01*
G37*
X71350000Y-56164349D02*
X71148040Y-56164349D01*
X71148040Y-55656999D01*
X71350000Y-55656999D01*
X71350000Y-56164349D01*
G36*
X71750000Y-59659119D02*
G01*
X71549259Y-59659119D01*
X71549259Y-59146999D01*
X71750000Y-59146999D01*
X71750000Y-59659119D01*
G37*
X71750000Y-59659119D02*
X71549259Y-59659119D01*
X71549259Y-59146999D01*
X71750000Y-59146999D01*
X71750000Y-59659119D01*
G36*
X70950000Y-59657899D02*
G01*
X70749330Y-59657899D01*
X70749330Y-59146999D01*
X70950000Y-59146999D01*
X70950000Y-59657899D01*
G37*
X70950000Y-59657899D02*
X70749330Y-59657899D01*
X70749330Y-59146999D01*
X70950000Y-59146999D01*
X70950000Y-59657899D01*
G36*
X72150000Y-59659569D02*
G01*
X71949615Y-59659569D01*
X71949615Y-59146999D01*
X72150000Y-59146999D01*
X72150000Y-59659569D01*
G37*
X72150000Y-59659569D02*
X71949615Y-59659569D01*
X71949615Y-59146999D01*
X72150000Y-59146999D01*
X72150000Y-59659569D01*
G36*
X72550000Y-56164919D02*
G01*
X72350139Y-56164919D01*
X72350139Y-55656999D01*
X72550000Y-55656999D01*
X72550000Y-56164919D01*
G37*
X72550000Y-56164919D02*
X72350139Y-56164919D01*
X72350139Y-55656999D01*
X72550000Y-55656999D01*
X72550000Y-56164919D01*
G36*
X70550000Y-59657759D02*
G01*
X70349280Y-59657759D01*
X70349280Y-59146999D01*
X70550000Y-59146999D01*
X70550000Y-59657759D01*
G37*
X70550000Y-59657759D02*
X70349280Y-59657759D01*
X70349280Y-59146999D01*
X70550000Y-59146999D01*
X70550000Y-59657759D01*
G36*
X74550000Y-59658819D02*
G01*
X74351910Y-59658819D01*
X74351910Y-59146999D01*
X74550000Y-59146999D01*
X74550000Y-59658819D01*
G37*
X74550000Y-59658819D02*
X74351910Y-59658819D01*
X74351910Y-59146999D01*
X74550000Y-59146999D01*
X74550000Y-59658819D01*
G36*
X73750000Y-59660549D02*
G01*
X73552310Y-59660549D01*
X73552310Y-59146999D01*
X73750000Y-59146999D01*
X73750000Y-59660549D01*
G37*
X73750000Y-59660549D02*
X73552310Y-59660549D01*
X73552310Y-59146999D01*
X73750000Y-59146999D01*
X73750000Y-59660549D01*
G36*
X70950000Y-56165889D02*
G01*
X70748890Y-56165889D01*
X70748890Y-55656999D01*
X70950000Y-55656999D01*
X70950000Y-56165889D01*
G37*
X70950000Y-56165889D02*
X70748890Y-56165889D01*
X70748890Y-55656999D01*
X70950000Y-55656999D01*
X70950000Y-56165889D01*
D11*
X77640000Y-74890000D03*
X76680000Y-74890000D03*
D12*
X77650000Y-78650000D03*
X77650000Y-79610000D03*
D13*
X70300000Y-63700000D03*
D14*
X69400000Y-63453500D03*
X69121500Y-64150000D03*
X68749999Y-63453500D03*
X68471500Y-64150000D03*
X68100000Y-63453500D03*
D13*
X67200000Y-63700000D03*
D14*
X67046500Y-64600000D03*
X67696500Y-64925000D03*
X67046500Y-65250001D03*
X67696500Y-65575000D03*
X67046500Y-65900000D03*
X67696500Y-66225000D03*
X67046500Y-66550001D03*
X67696500Y-66875000D03*
X67046500Y-67200000D03*
X67696500Y-67525000D03*
X67046500Y-67849999D03*
X67696500Y-68175000D03*
X67046500Y-68500000D03*
X67696500Y-68825000D03*
X67046500Y-69149999D03*
X67696500Y-69475000D03*
X67046500Y-69800000D03*
D13*
X67200000Y-70700001D03*
D14*
X68100000Y-70946500D03*
X68471500Y-70250000D03*
X68749999Y-70946500D03*
X69121500Y-70250000D03*
X69400000Y-70946500D03*
D13*
X70300000Y-70700000D03*
D14*
X70546500Y-69800000D03*
X69896500Y-69475000D03*
X70546500Y-69149999D03*
X69896500Y-68825000D03*
X70546500Y-68500000D03*
X69896500Y-68175000D03*
X70546500Y-67849999D03*
X69896500Y-67525000D03*
X70546500Y-67200000D03*
X69896500Y-66875000D03*
X70546500Y-66550001D03*
X69896500Y-66225000D03*
X70546500Y-65900000D03*
X69896500Y-65575000D03*
X70546500Y-65250001D03*
X69896500Y-64925000D03*
X70546500Y-64600000D03*
X69121500Y-69475000D03*
X69121500Y-68825000D03*
X69121500Y-68175000D03*
X69121500Y-67525000D03*
X69121500Y-66875000D03*
X69121500Y-66225000D03*
X69121500Y-65575000D03*
X69121500Y-64925000D03*
X68471500Y-69475000D03*
X68471500Y-68825000D03*
X68471500Y-68175000D03*
X68471500Y-67525000D03*
X68471500Y-66875000D03*
X68471500Y-66225000D03*
X68471500Y-65575000D03*
X68471500Y-64925000D03*
X66250000Y-63453500D03*
X65250000Y-63453500D03*
X64250000Y-63453500D03*
D13*
X63300000Y-63700000D03*
D14*
X63146500Y-64700000D03*
X63146500Y-65700000D03*
X63146500Y-66700000D03*
X63146500Y-67700000D03*
X63146500Y-68700000D03*
X63146500Y-69700000D03*
D13*
X63300000Y-70700000D03*
D14*
X64250000Y-70946490D03*
X65250000Y-70946490D03*
X66250000Y-70946490D03*
D15*
X71300000Y-80450000D03*
X67900000Y-80450000D03*
D16*
X67830000Y-58766999D03*
X67830000Y-57806999D03*
D17*
X67945000Y-59606999D03*
X67255000Y-59606999D03*
D18*
X75825000Y-68200000D03*
X75825000Y-67550000D03*
X75825000Y-66900000D03*
X75825000Y-66250000D03*
X75825000Y-65600000D03*
D19*
X76245000Y-69220000D03*
D20*
X78475000Y-65775000D03*
D19*
X76245000Y-64580000D03*
D20*
X78475000Y-68025000D03*
D12*
X75300000Y-78640000D03*
X75300000Y-79600000D03*
D21*
X74335000Y-75970000D03*
X73645000Y-75970000D03*
D22*
X79640000Y-56621999D03*
X79640000Y-55931999D03*
D11*
X75420000Y-74890000D03*
X74460000Y-74890000D03*
D12*
X76300000Y-78640000D03*
X76300000Y-79600000D03*
D23*
X69150000Y-56156999D03*
X69150000Y-59156999D03*
X75350000Y-59156999D03*
X75350000Y-56156999D03*
D24*
X74250000Y-69555000D03*
X74250000Y-70245000D03*
D11*
X79460000Y-77340000D03*
X78500000Y-77340000D03*
X74270000Y-76840000D03*
X73310000Y-76840000D03*
D22*
X77720000Y-80805000D03*
X77720000Y-81495000D03*
D25*
X69200000Y-77282500D03*
X69200000Y-78252500D03*
D11*
X79520000Y-75210000D03*
X78560000Y-75210000D03*
D26*
X75380000Y-76010000D03*
X75780000Y-76010000D03*
X76180000Y-76010000D03*
X76580000Y-76010000D03*
X76980000Y-76010000D03*
X77380000Y-76010000D03*
X75380000Y-76410000D03*
X75780000Y-76410000D03*
X76180000Y-76410000D03*
X76580000Y-76410000D03*
X76980000Y-76410000D03*
X77380000Y-76410000D03*
X75380000Y-76810000D03*
X75780000Y-76810000D03*
X76180000Y-76810000D03*
X76580000Y-76810000D03*
X76980000Y-76810000D03*
X77380000Y-76810000D03*
X75380000Y-77210000D03*
X75780000Y-77210000D03*
X76180000Y-77210000D03*
X76580000Y-77210000D03*
X76980000Y-77210000D03*
X77380000Y-77210000D03*
X75380000Y-77610000D03*
X75780000Y-77610000D03*
X76180000Y-77610000D03*
X76580000Y-77610000D03*
X76980000Y-77610000D03*
X77380000Y-77610000D03*
D22*
X76950000Y-81495000D03*
X76950000Y-80805000D03*
D27*
X76722500Y-59376999D03*
X77857500Y-59376999D03*
D28*
X76970000Y-57261999D03*
X77470000Y-57261999D03*
X77970000Y-57261999D03*
X78470000Y-57261999D03*
D29*
X78632500Y-56599499D03*
X78632500Y-56099499D03*
X78632500Y-55599499D03*
D28*
X78470000Y-54936999D03*
X77970000Y-54936999D03*
X77470000Y-54936999D03*
X76970000Y-54936999D03*
D29*
X76807500Y-55599499D03*
X76807500Y-56099499D03*
X76807500Y-56599499D03*
D25*
X68200000Y-77275000D03*
X68200000Y-78245000D03*
D24*
X68210000Y-76412500D03*
X68210000Y-75722500D03*
D22*
X73500000Y-70245000D03*
X73500000Y-69555000D03*
D16*
X67830000Y-56106999D03*
X67830000Y-55146999D03*
D24*
X69220000Y-75715000D03*
X69220000Y-76405000D03*
D12*
X74270000Y-78840000D03*
X74270000Y-79800000D03*
D17*
X67935000Y-56956999D03*
X67245000Y-56956999D03*
D30*
X72850000Y-81046000D03*
X75850000Y-81046000D03*
D11*
X74280000Y-77820000D03*
X73320000Y-77820000D03*
D21*
X77265000Y-58476999D03*
X76575000Y-58476999D03*
D31*
X79030000Y-78567500D03*
X79030000Y-80692500D03*
D32*
X78560000Y-76190000D03*
X79520000Y-76190000D03*
M02*
